<?xml version="1.0" encoding="utf-8"?>
<!-- Generator: Adobe Illustrator 27.4.1, SVG Export Plug-In . SVG Version: 6.00 Build 0)  -->
<svg version="1.1" id="Capa_1" xmlns="http://www.w3.org/2000/svg" xmlns:xlink="http://www.w3.org/1999/xlink" x="0px" y="0px"
	 viewBox="0 0 2500 2500" style="enable-background:new 0 0 2500 2500;" xml:space="preserve">
<style type="text/css">
	.st0{fill:#FF6900;}
</style>
<path id="path4105" class="st0" d="M549.4,2480.1c-91.1,0-141.6-21.3-168.6-36.9c-37.4-21.6-106.4-76.5-168.3-239.3
	c-99.2-260.6-157.7-579-160.4-953.2v-1.4c2.7-374.3,61.2-692.6,160.4-953.3c62-162.8,131-217.9,168.3-239.3
	c27-15.6,77.6-36.9,168.6-36.9c34.7,0,75.3,3.2,122.7,10.8c275.5,44.6,580.6,153,905.9,337.9l1.4,0.6
	c322.7,189.3,569.2,399.2,745.5,615.4c110,135,123,222.2,123,265.4c0,43.2-13.1,130.4-123,265.4
	c-176.3,216.2-422.8,426.1-745.5,615.4l-1.4,0.8c-325.3,184.8-630.4,293.3-905.9,337.9C624.7,2477.1,584.2,2480.1,549.4,2480.1
	L549.4,2480.1z"/>
</svg>
