<?xml version="1.0" encoding="UTF-8"?><svg id="uuid-b527ddba-5c92-4ad9-a82e-9e72460a967e" xmlns="http://www.w3.org/2000/svg" viewBox="0 0 636 637.35"><defs><style>.uuid-cd80ef66-3e22-44b6-92c9-baaca3f1f80e{fill:#ffb6b6;}.uuid-78942d5b-9d2a-400d-9e3d-28ab547c5ac5{fill:#2f2e41;}.uuid-9e0ebd33-18e2-4578-8f00-2f248c2d8284{fill:#fff;}.uuid-5c170d3c-18e6-4420-8f22-44638194b4b4{fill:#3f3d56;}.uuid-16c6218e-f90a-4908-bb0b-8eb70b9204a5{fill:#ffe9cc;}.uuid-79a4b90c-5c47-4aa5-8e1e-277f426d96ce{fill:#6c63ff;}.uuid-9b4351ed-14ad-482e-b176-d0551541cab2{fill:#ffb8b8;}.uuid-1e7d4a8a-1d29-4fed-8ac6-77f0ce4de977{fill:#9e616a;}.uuid-65787b71-77b6-40a0-923c-e7defeed6918{fill:#ccc;}</style></defs><polygon class="uuid-1e7d4a8a-1d29-4fed-8ac6-77f0ce4de977" points="489.5 605.21 472.33 605.21 464.16 539 489.5 539 489.5 605.21"/><path class="uuid-78942d5b-9d2a-400d-9e3d-28ab547c5ac5" d="m498.56,634.95h-12.31l-2.2-11.62-5.63,11.62h-32.65c-4.05,0-7.34-3.29-7.34-7.34,0-2.41,1.18-4.67,3.17-6.04l26.07-18.01v-11.75l27.42,1.64,3.46,41.5Z"/><polygon class="uuid-1e7d4a8a-1d29-4fed-8ac6-77f0ce4de977" points="591.48 583.54 577.7 593.79 531.64 545.53 551.97 530.41 591.48 583.54"/><path class="uuid-78942d5b-9d2a-400d-9e3d-28ab547c5ac5" d="m616.5,602l-9.88,7.35-8.7-8.02,2.42,12.68-26.2,19.48c-3.25,2.42-7.85,1.74-10.27-1.51-1.44-1.94-1.84-4.45-1.06-6.74l10.18-30.01-7.01-9.43,22.98-15.05,27.54,31.24Z"/><path class="uuid-78942d5b-9d2a-400d-9e3d-28ab547c5ac5" d="m509.48,263.6s32.57,28.14,17.54,108.35l-18.35,78.6,59.83,99.26-19.08,23.21-77.78-107.43-28.19-66.11-7.91-117.67,73.92-18.2Z"/><polygon class="uuid-78942d5b-9d2a-400d-9e3d-28ab547c5ac5" points="459 418.31 457.04 448.65 463.04 577.93 491.25 573.02 496.64 480.97 459 418.31"/><polygon class="uuid-cd80ef66-3e22-44b6-92c9-baaca3f1f80e" points="97 620.77 112.35 620.77 119.65 561.56 97 561.57 97 620.77"/><path class="uuid-78942d5b-9d2a-400d-9e3d-28ab547c5ac5" d="m93.09,615.76h4.32s16.87-6.86,16.87-6.86l9.04,6.86h0c10.64,0,19.26,8.63,19.27,19.27v.63h-49.5s0-19.89,0-19.89Z"/><polygon class="uuid-cd80ef66-3e22-44b6-92c9-baaca3f1f80e" points="156.49 611.1 171.46 614.48 191.63 558.34 169.53 553.35 156.49 611.1"/><path class="uuid-78942d5b-9d2a-400d-9e3d-28ab547c5ac5" d="m153.77,605.35l4.21.95,17.97-2.98,7.31,8.68h0c10.38,2.34,16.89,12.66,14.55,23.04l-.14.61-48.28-10.9,4.38-19.4Z"/><path class="uuid-78942d5b-9d2a-400d-9e3d-28ab547c5ac5" d="m77.56,258.8c-7.2,21.71-6.44,45.27,1.73,70.56l3.49,142.38s-5.2,93.37,11.58,126.22h24.34l12.05-134.75,1.51-90.45,52.18,76.31-33.24,146.69,29.96,2.68,53.93-159.19-66.54-154.44-91-26Z"/><path class="uuid-9e0ebd33-18e2-4578-8f00-2f248c2d8284" d="m361,229.52c-.7-.13-.43-1.2.27-1.07h0"/><path class="uuid-9e0ebd33-18e2-4578-8f00-2f248c2d8284" d="m432,253.15c-.65,2.74.12,5.63,2.06,7.68.49.52-.37,1.21-.86.69-2.13-2.28-2.99-5.46-2.3-8.49.04-.3.31-.51.61-.49.3.03.52.31.49.61h0Z"/><path class="uuid-9b4351ed-14ad-482e-b176-d0551541cab2" d="m315.94,165.69c-3.88,5.1-11.15,6.09-16.25,2.21-.54-.41-1.05-.87-1.51-1.38l-37.8,16.44,3.68-21.1,35.33-12.38c5.02-4.04,12.36-3.25,16.4,1.77,3.38,4.2,3.45,10.16.16,14.43Z"/><path class="uuid-16c6218e-f90a-4908-bb0b-8eb70b9204a5" d="m290.71,172.28l-87.8,39.11-.19-.07-100.07-35.66c-15.47-8.09-21.96-26.84-14.78-42.76h0c7.49-16.57,27-23.93,43.57-16.43,1.17.53,2.32,1.13,3.42,1.8l74.47,44.86,72.21-9.36,9.17,18.51Z"/><path class="uuid-65787b71-77b6-40a0-923c-e7defeed6918" d="m636,636.16c0,.66-.39,1.19-.87,1.19H.88c-.48,0-.88-.53-.88-1.19s.39-1.19.88-1.19h634.25c.48,0,.88.53.88,1.18h0Z"/><path class="uuid-16c6218e-f90a-4908-bb0b-8eb70b9204a5" d="m172.9,289.36l-88.51-14.16c-8.89-2.85-13.78-12.36-10.94-21.24.26-.83.59-1.63.98-2.4l4.01-8.03-1.56-84.35c-.38-22.33,11.18-43.17,30.34-54.65l8.63-5.16,4.36-11.08,40.22.98.12,14.53,14.4,22.97v.1s-.9,125.01-.9,125.01l-3.97,12.9,6,15.01-3.19,9.58Z"/><circle class="uuid-9b4351ed-14ad-482e-b176-d0551541cab2" cx="142.24" cy="45.44" r="36.54"/><path class="uuid-78942d5b-9d2a-400d-9e3d-28ab547c5ac5" d="m104.18,53.4c-1.09-4.59-.59-11.05.03-15.68,1.61-12.12,8.35-23.64,18.57-30.47,1.94-1.47,4.24-2.39,6.66-2.65,2.42-.1,5.04,1.19,5.78,3.5,1.23-3.07,3.68-5.5,6.77-6.71,3.07-1.17,6.36-1.62,9.63-1.3,12.9,1.06,24.18,9.13,29.36,20.99.98,2.32,3.7-6.25,4.94-4.06,1.14,2.28,3.12,4.02,5.52,4.85,2.42.68,3.41,10.66,4.36,8.33,2.42,5.63-.18,12.16-5.81,14.58-1.51.65-3.15.96-4.8.9-2.47-.09-4.82-1-7.26-1.39-8.72-1.4-17.96,4.92-19.82,13.55-.67-2.49-1.73-4.87-3.16-7.02-1.47-2.17-3.89-3.51-6.51-3.58-2.48.09-4.66,1.71-6.27,3.6s-2.82,4.09-4.44,5.97c-4.76,5.51-11.19,18.37-17.96,17.43-5.35-.74-14.11-14.59-15.6-20.86Z"/><path class="uuid-9e0ebd33-18e2-4578-8f00-2f248c2d8284" d="m364.92,207.1c.53-3.44-1.5-6.76-4.81-7.85l-98.41-32.78c-.94-.32-1.94-.43-2.93-.34l-24.67,2.33-14.15,1.34-26.12,2.47c-3.24.31-5.87,2.77-6.38,5.99l-13.26,82.84c-.52,3.33,1.35,6.57,4.48,7.8l99.44,38.38c.47.18.95.31,1.45.39.72.12,1.45.12,2.18.02l64.26-9.52c3.11-.45,5.56-2.89,6.02-6l12.91-85.07Z"/><path class="uuid-79a4b90c-5c47-4aa5-8e1e-277f426d96ce" d="m180.92,263.07l99.44,38.38c.15.06.3.08.46.05l64.25-9.52c.39-.05.7-.36.75-.75l12.92-85.07c.06-.43-.19-.84-.6-.98l-.66-.22-97.76-32.55s-.09-.03-.14-.03c-.08-.01-.15-.02-.23-.01l-60.16,5.69-4.77.45c-.4.04-.73.35-.79.75l-13.26,82.83c-.07.42.17.82.56.98Z"/><path class="uuid-78942d5b-9d2a-400d-9e3d-28ab547c5ac5" d="m199.19,178.06l60.16-5.69c.08,0,.15,0,.23.01.05,0,.09.02.14.03l97.76,32.55-25.79,2.73-9.65,1.02-27.46,2.9c-.08,0-.16,0-.24,0-.05-.01-.1-.03-.16-.05l-94.99-33.5Z"/><path class="uuid-5c170d3c-18e6-4420-8f22-44638194b4b4" d="m364.92,207.1c.19-1.25.05-2.54-.42-3.72-.07-.16-.13-.31-.21-.46-.51-1.08-1.29-2.01-2.26-2.7-.59-.42-1.23-.75-1.92-.98l-.12-.04-98.29-32.74c-.4-.13-.81-.23-1.23-.3-.57-.08-1.14-.09-1.71-.03l-24.66,2.32-14.15,1.35-26.12,2.47c-1.07.1-2.1.44-3.02,1-.07.03-.14.07-.2.12-.05.03-.09.06-.13.1-1.62,1.11-2.71,2.83-3.03,4.76l-13.27,82.84c-.52,3.33,1.35,6.57,4.49,7.8l99.44,38.38c.47.18.95.31,1.45.38.72.12,1.45.13,2.18.03l64.25-9.52c3.11-.45,5.56-2.89,6.03-6m-162.8-113.62c.16-.99.6-1.92,1.27-2.67.2-.24.43-.46.68-.66.67-.55,1.47-.92,2.32-1.08.17-.03.34-.06.51-.07l43.98-4.16,20.96-1.99c.14-.02.27-.01.4-.02.32,0,.63.02.95.07.29.04.57.1.84.2l98.41,32.78c.08.03.15.05.22.08.89.33,1.68.9,2.27,1.65.95,1.16,1.35,2.67,1.12,4.15l-12.92,85.08c-.35,2.33-2.18,4.16-4.51,4.5l-64.26,9.52c-.92.13-1.86.02-2.72-.31l-99.44-38.37c-2.35-.93-3.74-3.35-3.36-5.85l13.26-82.84Z"/><path class="uuid-5c170d3c-18e6-4420-8f22-44638194b4b4" d="m190.26,173.95c.05-.15.15-.28.27-.39.04-.03.08-.06.13-.09.04-.02.08-.04.13-.06.2-.08.42-.08.62-.01l2.07.73,101.12,35.67,23.67-2.5,13.24-1.4,28.03-2.97,2.51-.26.49-.05c.43-.04.83.24.95.65.01.05.02.09.03.14.04.4-.18.77-.55.92-.08.03-.16.06-.25.07l-3.41.36-27.6,2.92-9.65,1.02-27.46,2.9c-.08,0-.16,0-.24,0-.05-.01-.1-.03-.16-.05l-103.03-36.33-.35-.12c-.08-.03-.15-.07-.22-.12-.32-.23-.45-.65-.32-1.03Z"/><path class="uuid-5c170d3c-18e6-4420-8f22-44638194b4b4" d="m279.83,307.93c-.48-.08-.82-.53-.74-1.02l14.52-96.33c.07-.49.53-.82,1.02-.75h0c.48.08.82.53.74,1.02l-14.52,96.33c-.07.49-.53.82-1.02.75h0Z"/><path class="uuid-5c170d3c-18e6-4420-8f22-44638194b4b4" d="m316.62,301.82l-9.65,1.02,11.29-95.53s12.89-2.33,13.24-1.4c.21.56-14.79,95.3-14.88,95.91Z"/><polygon class="uuid-5c170d3c-18e6-4420-8f22-44638194b4b4" points="190.81 175.1 190.55 218.66 267.67 248.05 295.37 210.85 190.81 175.1"/><path class="uuid-5c170d3c-18e6-4420-8f22-44638194b4b4" d="m362.04,202.68c-.64-.81-1.51-1.41-2.5-1.74l-98.41-32.78c-.28-.09-.56-.16-.85-.21-.31-.05-.63-.08-.95-.07l.16-1,.99-.71,23.37-16.92,78.04,23.92.14,27.05v2.45Z"/><path class="uuid-9e0ebd33-18e2-4578-8f00-2f248c2d8284" d="m194.74,245.04c.11.01.22.03.33.07l30.19,9.92c.79.26,1.21,1.11.95,1.9-.26.78-1.1,1.21-1.89.95l-30.19-9.92c-.79-.26-1.22-1.11-.96-1.89.22-.67.87-1.09,1.57-1.03h0Z"/><path class="uuid-9b4351ed-14ad-482e-b176-d0551541cab2" d="m280.25,262.69c-5.88,2.55-12.71-.14-15.26-6.02-.27-.63-.49-1.28-.65-1.94l-41.01-4.14,13.53-16.61,36.87,6.48c6.35-1.07,12.37,3.21,13.44,9.56.9,5.31-1.97,10.55-6.92,12.67Z"/><path class="uuid-16c6218e-f90a-4908-bb0b-8eb70b9204a5" d="m255.02,256.1l-95.71-8.82-.13-.15-69.85-80.04c-9.54-14.62-6.03-34.15,8.01-44.52h0c14.64-10.79,35.25-7.67,46.04,6.97.76,1.04,1.47,2.12,2.11,3.24l43.02,75.54,67.57,27.15-1.05,20.63Z"/><path class="uuid-78942d5b-9d2a-400d-9e3d-28ab547c5ac5" d="m495.25,102.18c-2.38-17.43-5.36-36.15-17.65-48.74-15.96-16.33-42.14-16.64-58.47-.68-.43.42-.86.86-1.27,1.3-8.95,9.55-12.9,22.96-13.27,36.04s2.55,26.02,5.78,38.7c17.11.34,34.09-3,49.79-9.8,3.93-1.7,7.79-3.63,11.94-4.69,4.15-1.06,7.1,1.6,10.96,3.45l2.12-4.06c1.73,3.23,7.1,2.27,9.05-.83,1.95-3.1,1.52-7.08,1.03-10.7Z"/><path class="uuid-1e7d4a8a-1d29-4fed-8ac6-77f0ce4de977" d="m427.44,199.49l-69.88,1.49c-3.06-5.28-9.82-7.09-15.1-4.03-5.28,3.06-7.09,9.82-4.03,15.1,2.86,4.94,9.01,6.89,14.2,4.5,9.27.53,81.77,10.82,86.1,4.19,4.39-6.73,27.82-30.49,27.82-30.49l-18.01-25.64-21.09,34.88Z"/><circle class="uuid-1e7d4a8a-1d29-4fed-8ac6-77f0ce4de977" cx="444.47" cy="86.6" r="32.83"/><path class="uuid-5c170d3c-18e6-4420-8f22-44638194b4b4" d="m497.05,149.77c-3.87-7.7-5.75-17.21-14-19.71-5.57-1.69-28.1.84-33.17,3.69-8.44,4.73-.79,13.6-5.77,21.9-5.42,9.02-20.13,27.13-25.55,36.15-3.72,6.2,8.82,24.41,6.8,31.36-2.01,6.95-2.11,14.75,1.32,21.12,3.07,5.7-1.37,10.74,1.72,16.44,3.21,5.92,7.15,28.05,4.16,34.09l-2,6c19.85,1.17,36.53-22.54,56.26-25.04,4.9-.62,9.99-1.43,14.02-4.27,5.95-4.19,8.3-11.79,9.77-18.91,7.07-34.82,2.3-71.01-13.56-102.8Z"/><path class="uuid-1e7d4a8a-1d29-4fed-8ac6-77f0ce4de977" d="m526.81,231.07c-2.76-7.55-7.77-40.54-7.77-40.54l-31.32-.92,15.31,37.77-41.79,58.5s.08.13.22.36c-6.03-.97-11.7,3.13-12.66,9.16-.97,6.03,3.13,11.7,9.16,12.66,6.03.97,11.7-3.13,12.66-9.16.05-.3.08-.61.11-.92.32.18.72.11.96-.16,4.65-5.84,57.89-59.21,55.12-66.76Z"/><path class="uuid-5c170d3c-18e6-4420-8f22-44638194b4b4" d="m529.99,210.23c-2.88-12.13-5.77-24.34-10.62-35.83s-11.79-22.34-21.55-30.11c-3.12-2.48-6.61-4.67-10.52-5.44-3.91-.77-8.32.09-11.07,2.98-4.4,4.62-3.07,12.05-1.46,18.22,4.75,18.2,9.51,36.4,14.26,54.6,13.73-1.46,27.46-2.91,41.19-4.37l-.24-.06Z"/><path class="uuid-78942d5b-9d2a-400d-9e3d-28ab547c5ac5" d="m484.69,91.15c-1.21-7.94-2.47-15.95-5.31-23.43-2.84-7.48-7.42-14.48-13.99-18.72-10.4-6.71-23.86-5.41-35.52-1.56-9.02,2.98-17.82,7.52-24.18,14.81-6.36,7.29-9.93,17.69-7.56,27.23,12.44-2.94,24.87-5.88,37.31-8.81l-1.36.96c8.27,4.13,14.19,11.83,16.03,20.89,1.8,9.16-.61,18.65-6.57,25.85,8.48-3.01,16.96-6.02,25.44-9.03,5.24-1.86,10.84-4,13.94-8.76,3.6-5.52,2.76-12.84,1.76-19.43Z"/></svg>