<?xml version="1.0" encoding="utf-8"?>
<!-- Generator: Adobe Illustrator 27.3.1, SVG Export Plug-In . SVG Version: 6.00 Build 0)  -->
<svg version="1.1" id="Capa_1" xmlns="http://www.w3.org/2000/svg" xmlns:xlink="http://www.w3.org/1999/xlink" x="0px" y="0px"
	 viewBox="0 0 300 100" style="enable-background:new 0 0 300 100;" xml:space="preserve">
<style type="text/css">
	.st0{fill:#EE7556;}
	.st1{fill:#040405;}
</style>
<g id="CrasForum_Logistics">
	<g id="CRAS_FORUM">
		<path d="M135.6,45.1c1,0,1.9-0.2,2.7-0.7c0.8-0.4,1.4-1.1,1.9-1.8l1.9,1.2c-0.7,1.1-1.6,2-2.7,2.6s-2.4,0.9-3.9,0.9
			c-1.5,0-2.9-0.3-4.1-1c-1.2-0.7-2.1-1.6-2.8-2.8c-0.7-1.2-1-2.5-1-4c0-1.1,0.2-2.1,0.6-3.1c0.4-1,0.9-1.8,1.6-2.5
			c0.7-0.7,1.5-1.2,2.5-1.6c1-0.4,2-0.6,3.2-0.6c1.4,0,2.7,0.3,3.9,0.9c1.1,0.6,2,1.5,2.7,2.6l-1.9,1.2c-0.5-0.8-1.1-1.4-1.9-1.8
			c-0.8-0.5-1.7-0.7-2.7-0.7c-1,0-2,0.2-2.8,0.8c-0.8,0.5-1.4,1.2-1.9,2c-0.4,0.8-0.6,1.7-0.6,2.7s0.2,1.9,0.6,2.7
			c0.4,0.8,1.1,1.5,1.9,2C133.7,44.8,134.6,45.1,135.6,45.1z"/>
		<path d="M149.7,47.1h-2.4V32.2h7.1c0.9,0,1.7,0.1,2.4,0.4c0.7,0.3,1.3,0.6,1.8,1.1c0.5,0.5,0.8,1,1.1,1.6c0.2,0.6,0.4,1.3,0.4,2
			c0,1.1-0.3,2-0.8,2.9c-0.6,0.8-1.3,1.4-2.4,1.8l3.9,5.1h-2.9l-3.6-4.7h-4.6L149.7,47.1L149.7,47.1z M149.7,34.5v5.7h4.8
			c0.9,0,1.7-0.3,2.2-0.8c0.6-0.6,0.9-1.2,0.9-2s-0.3-1.5-0.9-2c-0.6-0.5-1.3-0.8-2.2-0.8L149.7,34.5L149.7,34.5z"/>
		<path d="M170.3,32.2h2.6l6.3,14.9h-2.5l-1.4-3.4h-7.4l-1.4,3.4H164L170.3,32.2z M168.9,41.5h5.5l-2.8-6.5L168.9,41.5z"/>
		<path d="M185.5,36.3c0,0.4,0.1,0.7,0.3,0.9c0.2,0.2,0.5,0.4,0.9,0.6c0.4,0.1,0.8,0.3,1.3,0.4c0.5,0.1,1,0.2,1.5,0.3
			c0.5,0.1,1.1,0.2,1.6,0.3c0.5,0.1,1.1,0.3,1.5,0.5c0.5,0.2,0.9,0.4,1.3,0.7c0.4,0.3,0.7,0.7,0.9,1.1c0.2,0.5,0.3,1,0.3,1.6
			c0,1.4-0.5,2.5-1.6,3.4c-1,0.8-2.4,1.3-4.2,1.3c-1.4,0-2.7-0.2-3.9-0.6c-1.2-0.4-2.2-0.9-3-1.6l1.4-1.9c1.8,1.2,3.6,1.8,5.5,1.8
			c0.6,0,1.1-0.1,1.5-0.2c0.4-0.1,0.8-0.3,1-0.6c0.2-0.2,0.4-0.5,0.5-0.7c0.1-0.2,0.2-0.5,0.2-0.7c0-0.3-0.1-0.6-0.3-0.8
			c-0.2-0.2-0.4-0.4-0.7-0.6c-0.3-0.1-0.7-0.2-1.1-0.4c-0.4-0.1-0.9-0.2-1.3-0.3c-0.5-0.1-0.9-0.2-1.4-0.2c-0.5-0.1-1-0.2-1.4-0.3
			c-0.5-0.1-0.9-0.3-1.3-0.5c-0.4-0.2-0.8-0.5-1.1-0.8c-0.3-0.3-0.6-0.7-0.7-1.1c-0.2-0.5-0.3-1-0.3-1.6c0-1.3,0.5-2.3,1.6-3.1
			c1.1-0.8,2.4-1.1,4.1-1.1c2.5,0,4.6,0.6,6.2,1.8l-1.1,2c-0.8-0.5-1.7-0.9-2.6-1.1c-0.9-0.2-1.8-0.4-2.6-0.4
			c-0.9,0-1.7,0.2-2.3,0.6C185.7,35.2,185.5,35.7,185.5,36.3z"/>
		<path d="M219.2,34.5h-9.1v4.3h7.4v2.3h-7.4v6h-2.4V32.2h11.5L219.2,34.5L219.2,34.5z"/>
		<path d="M227.6,32.4c1-0.4,2-0.6,3.1-0.6c1.1,0,2.1,0.2,3.1,0.6c1,0.4,1.8,1,2.5,1.7c0.7,0.7,1.2,1.5,1.6,2.5c0.4,1,0.6,2,0.6,3
			c0,1.4-0.3,2.7-1,3.9c-0.7,1.2-1.6,2.1-2.8,2.8c-1.2,0.7-2.5,1.1-4,1.1s-2.8-0.3-4-1.1c-1.2-0.7-2.1-1.6-2.8-2.8
			c-0.7-1.2-1-2.5-1-3.9c0-1.1,0.2-2.1,0.6-3c0.4-1,0.9-1.8,1.6-2.5C225.8,33.4,226.6,32.8,227.6,32.4z M227.9,44.3
			c0.8,0.5,1.8,0.8,2.8,0.8c1,0,1.9-0.3,2.8-0.8c0.8-0.5,1.5-1.2,1.9-2c0.5-0.8,0.7-1.7,0.7-2.7c0-1-0.2-1.8-0.7-2.7
			c-0.5-0.8-1.1-1.5-1.9-2c-0.8-0.5-1.8-0.8-2.8-0.8c-1,0-1.9,0.3-2.8,0.8c-0.8,0.5-1.5,1.2-1.9,2c-0.5,0.8-0.7,1.7-0.7,2.7
			c0,1,0.2,1.8,0.7,2.7C226.4,43.1,227.1,43.8,227.9,44.3z"/>
		<path d="M245.9,47.1h-2.4V32.2h7.1c0.9,0,1.7,0.1,2.4,0.4c0.7,0.3,1.3,0.6,1.8,1.1c0.5,0.5,0.8,1,1.1,1.6c0.2,0.6,0.4,1.3,0.4,2
			c0,1.1-0.3,2-0.8,2.9c-0.6,0.8-1.3,1.4-2.4,1.8l3.9,5.1h-2.9l-3.6-4.7h-4.6V47.1z M245.9,34.5v5.7h4.8c0.9,0,1.7-0.3,2.2-0.8
			c0.6-0.6,0.9-1.2,0.9-2s-0.3-1.5-0.9-2c-0.6-0.5-1.3-0.8-2.2-0.8L245.9,34.5L245.9,34.5z"/>
		<path d="M272.3,32.1h2.4v8.4c0,2.2-0.6,3.9-1.8,5c-1.2,1.2-2.8,1.8-4.9,1.8s-3.7-0.6-4.9-1.8c-1.2-1.2-1.8-2.9-1.8-5v-8.4h2.4v8.2
			c0,1.4,0.4,2.6,1.1,3.4c0.7,0.9,1.8,1.3,3.1,1.3c1.4,0,2.4-0.4,3.2-1.3c0.7-0.9,1.1-2,1.1-3.4L272.3,32.1L272.3,32.1z"/>
		<path d="M296.7,32.2v14.9h-2.5V36.6l-4.8,6.8h-1.8l-4.8-6.8v10.4h-2.4V32.2h2.1l6,8.6l6-8.6H296.7L296.7,32.2z"/>
	</g>
	<g id="LOGISTICS">
		<path class="st0" d="M131,65.6h8.1v2.3h-10.5V53h2.4V65.6z"/>
		<path class="st0" d="M147.3,53.2c1-0.4,2-0.6,3.1-0.6s2.1,0.2,3.1,0.6c1,0.4,1.8,1,2.5,1.7c0.7,0.7,1.2,1.5,1.6,2.5
			c0.4,1,0.6,2,0.6,3c0,1.4-0.3,2.7-1,3.9c-0.7,1.2-1.6,2.1-2.8,2.8s-2.5,1.1-4,1.1c-1.5,0-2.8-0.3-4-1.1c-1.2-0.7-2.1-1.6-2.8-2.8
			c-0.7-1.2-1-2.5-1-3.9c0-1.1,0.2-2.1,0.6-3c0.4-1,0.9-1.8,1.6-2.5C145.5,54.2,146.3,53.7,147.3,53.2z M147.6,65.1
			c0.8,0.5,1.8,0.8,2.8,0.8c1,0,1.9-0.3,2.8-0.8c0.8-0.5,1.5-1.2,1.9-2c0.5-0.8,0.7-1.7,0.7-2.7s-0.2-1.8-0.7-2.7
			c-0.5-0.8-1.1-1.5-1.9-2c-0.8-0.5-1.8-0.8-2.8-0.8c-1,0-1.9,0.3-2.8,0.8c-0.8,0.5-1.5,1.2-1.9,2c-0.5,0.8-0.7,1.7-0.7,2.7
			s0.2,1.8,0.7,2.7C146.2,63.9,146.8,64.6,147.6,65.1z"/>
		<path class="st0" d="M177.7,59.4c0.1,0.5,0.1,1,0.1,1.4c0,1-0.2,2-0.6,2.9c-0.4,0.9-0.9,1.7-1.6,2.3c-0.7,0.7-1.5,1.2-2.4,1.6
			c-0.9,0.4-2,0.6-3,0.6c-1.1,0-2.1-0.2-3.1-0.6c-1-0.4-1.8-1-2.5-1.7c-0.7-0.7-1.2-1.5-1.6-2.5c-0.4-1-0.6-2-0.6-3
			c0-1.1,0.2-2.1,0.6-3.1c0.4-1,0.9-1.8,1.6-2.5c0.7-0.7,1.5-1.2,2.5-1.6c1-0.4,2-0.6,3.1-0.6c1.3,0,2.6,0.3,3.7,0.9
			c1.2,0.6,2.1,1.3,2.8,2.3l-1.9,1.3c-0.5-0.7-1.2-1.2-2-1.6c-0.8-0.4-1.7-0.6-2.6-0.6c-1.1,0-2,0.2-2.8,0.7c-0.8,0.5-1.4,1.2-1.9,2
			c-0.4,0.8-0.6,1.7-0.6,2.8c0,1,0.2,1.9,0.6,2.7c0.4,0.8,1.1,1.5,1.9,2c0.8,0.5,1.7,0.7,2.8,0.7c1.4,0,2.5-0.4,3.4-1.2
			c0.9-0.8,1.4-1.8,1.6-3.1h-5.3v-2.3L177.7,59.4L177.7,59.4z"/>
		<path class="st0" d="M185.1,67.9h-2.4V53h2.4V67.9z"/>
		<path class="st0" d="M193,57.1c0,0.4,0.1,0.7,0.3,0.9c0.2,0.2,0.5,0.4,0.9,0.6c0.4,0.1,0.8,0.3,1.3,0.4c0.5,0.1,1,0.2,1.5,0.3
			c0.5,0.1,1.1,0.2,1.6,0.3c0.5,0.1,1.1,0.3,1.5,0.5c0.5,0.2,0.9,0.4,1.3,0.7c0.4,0.3,0.7,0.7,0.9,1.1c0.2,0.5,0.3,1,0.3,1.6
			c0,1.4-0.5,2.5-1.6,3.4c-1,0.8-2.4,1.3-4.2,1.3c-1.4,0-2.7-0.2-3.9-0.6s-2.2-0.9-3-1.6l1.4-1.9c1.8,1.2,3.6,1.8,5.5,1.8
			c0.6,0,1.1-0.1,1.5-0.2c0.4-0.1,0.8-0.3,1-0.6c0.2-0.2,0.4-0.5,0.5-0.7c0.1-0.2,0.2-0.5,0.2-0.7c0-0.3-0.1-0.6-0.3-0.8
			c-0.2-0.2-0.4-0.4-0.7-0.6c-0.3-0.1-0.7-0.2-1.1-0.4c-0.4-0.1-0.9-0.2-1.3-0.3c-0.5-0.1-0.9-0.2-1.4-0.2c-0.5-0.1-1-0.2-1.4-0.3
			c-0.5-0.1-0.9-0.3-1.3-0.5c-0.4-0.2-0.8-0.5-1.1-0.8c-0.3-0.3-0.6-0.7-0.7-1.1c-0.2-0.5-0.3-1-0.3-1.6c0-1.3,0.5-2.3,1.6-3.1
			c1.1-0.8,2.4-1.1,4.1-1.1c2.5,0,4.6,0.6,6.2,1.8l-1.1,2c-0.8-0.5-1.7-0.9-2.6-1.1c-0.9-0.2-1.8-0.4-2.6-0.4
			c-0.9,0-1.7,0.2-2.3,0.6C193.3,56,193,56.5,193,57.1z"/>
		<path class="st0" d="M206.9,53H220v2.3h-5.3v12.6h-2.4V55.3h-5.3L206.9,53L206.9,53z"/>
		<path class="st0" d="M227.3,67.9H225V53h2.4V67.9z"/>
		<path class="st0" d="M240.2,65.9c1,0,1.9-0.2,2.7-0.7c0.8-0.4,1.4-1.1,1.9-1.8l1.9,1.2c-0.7,1.1-1.6,2-2.7,2.6
			c-1.1,0.6-2.4,0.9-3.9,0.9c-1.5,0-2.9-0.3-4.1-1c-1.2-0.7-2.1-1.6-2.8-2.8c-0.7-1.2-1-2.5-1-4c0-1.1,0.2-2.1,0.6-3.1
			c0.4-1,0.9-1.8,1.6-2.5c0.7-0.7,1.5-1.2,2.5-1.6c1-0.4,2-0.6,3.2-0.6c1.4,0,2.7,0.3,3.9,0.9s2,1.5,2.7,2.6l-1.9,1.2
			c-0.5-0.8-1.1-1.4-1.9-1.8s-1.7-0.7-2.7-0.7c-1,0-2,0.2-2.8,0.8c-0.8,0.5-1.4,1.2-1.9,2c-0.4,0.8-0.6,1.7-0.6,2.7
			c0,1,0.2,1.9,0.6,2.7c0.4,0.8,1.1,1.5,1.9,2C238.3,65.6,239.2,65.9,240.2,65.9z"/>
		<path class="st0" d="M254,57.1c0,0.4,0.1,0.7,0.3,0.9c0.2,0.2,0.5,0.4,0.9,0.6c0.4,0.1,0.8,0.3,1.3,0.4c0.5,0.1,1,0.2,1.5,0.3
			c0.5,0.1,1.1,0.2,1.6,0.3c0.5,0.1,1.1,0.3,1.5,0.5c0.5,0.2,0.9,0.4,1.3,0.7c0.4,0.3,0.7,0.7,0.9,1.1c0.2,0.5,0.3,1,0.3,1.6
			c0,1.4-0.5,2.5-1.6,3.4c-1,0.8-2.4,1.3-4.2,1.3c-1.4,0-2.7-0.2-3.9-0.6c-1.2-0.4-2.2-0.9-3-1.6l1.4-1.9c1.8,1.2,3.6,1.8,5.5,1.8
			c0.6,0,1.1-0.1,1.5-0.2c0.4-0.1,0.8-0.3,1-0.6c0.2-0.2,0.4-0.5,0.5-0.7c0.1-0.2,0.2-0.5,0.2-0.7c0-0.3-0.1-0.6-0.3-0.8
			c-0.2-0.2-0.4-0.4-0.7-0.6c-0.3-0.1-0.7-0.2-1.1-0.4c-0.4-0.1-0.9-0.2-1.3-0.3c-0.5-0.1-0.9-0.2-1.4-0.2c-0.5-0.1-1-0.2-1.4-0.3
			c-0.5-0.1-0.9-0.3-1.3-0.5c-0.4-0.2-0.8-0.5-1.1-0.8c-0.3-0.3-0.6-0.7-0.7-1.1c-0.2-0.5-0.3-1-0.3-1.6c0-1.3,0.5-2.3,1.6-3.1
			c1.1-0.8,2.4-1.1,4.1-1.1c2.5,0,4.6,0.6,6.2,1.8l-1.1,2c-0.8-0.5-1.7-0.9-2.6-1.1c-0.9-0.2-1.8-0.4-2.6-0.4
			c-0.9,0-1.7,0.2-2.3,0.6C254.3,56,254,56.5,254,57.1z"/>
	</g>
	<path class="st1" d="M57.5,36.5c0.3,0,0.6,0,0.9,0c1.2,0,2.5,0.1,3.7,0c1.3-0.1,2.5,0.1,3.8-0.1c1.2,0,2.4,0,3.7,0
		c3-0.1,5.9-0.2,8.9-0.3c1.6-0.1,3.3-0.2,4.9-0.3c2.4-0.1,4.9-0.2,7.3-0.5c2.2-0.2,4.5-0.4,6.7-0.6c2.8-0.2,5.6-0.6,8.4-0.9
		c2.5-0.3,5-0.7,7.5-1.1c1.2-0.2,2.3-0.3,3.5-0.5c0.6-0.1,0.8,0,0.8,0.7c0,11.4,0,22.8,0,34.2c0,0.8-0.1,0.8-0.9,0.7
		c-1.2-0.2-2.4-0.4-3.7-0.6c-1.4-0.2-2.8-0.5-4.3-0.7c-0.8-0.1-1.6-0.2-2.5-0.2c-0.4,0-1-0.1-1.5-0.2c-1.6-0.4-3.2-0.4-4.8-0.6
		c-1.5-0.2-3-0.4-4.5-0.6c-0.7-0.1-1.5-0.1-2.2-0.2c-2.2-0.1-4.3-0.4-6.5-0.5c-2.3-0.1-4.6-0.3-6.9-0.5c-2.2-0.1-4.4-0.2-6.6-0.3
		c-1.9-0.1-3.7,0-5.6-0.1C62.4,63,57,63.2,51.5,63.2c-1.6,0-3.1,0-4.7,0.1c-2.4,0.2-4.7,0.2-7.1,0.3c-2.6,0.1-5.1,0.4-7.7,0.6
		c-2,0.2-4,0.2-5.9,0.5c-2.3,0.3-4.6,0.5-6.9,0.9c-1.8,0.3-3.6,0.4-5.4,0.7c-3.1,0.4-6.2,0.9-9.3,1.4c-0.1,0-0.2,0-0.3,0.1
		c-0.6,0.2-0.8,0.1-0.8-0.6c0-7.9,0-15.8,0-23.7c0-3.5,0-7.1,0-10.7c0-0.7,0.2-0.7,0.8-0.6c1.5,0.3,3.1,0.5,4.7,0.7
		c1.8,0.3,3.6,0.5,5.4,0.8c1.5,0.2,2.9,0.3,4.4,0.5c1.7,0.2,3.4,0.4,5.1,0.6c0.7,0.1,1.4,0.1,2.1,0.2c2.2,0.2,4.5,0.3,6.7,0.5
		c2.4,0.2,4.9,0.3,7.3,0.5c2.4,0.1,4.8,0.2,7.3,0.3c1.4,0.1,2.9,0,4.3,0.1c0.8,0.1,1.7,0.2,2.5,0.1C55.1,36.5,56.3,36.5,57.5,36.5z
		 M64.5,48.9L64.5,48.9c-0.2-0.2-0.4-0.1-0.6-0.1c-1.7,0-3.4,0-5.1,0c-0.6,0-0.7,0.2-0.7,0.7c0,3.5,0,7.1,0,10.6
		c0,0.2-0.1,0.5,0.2,0.6c2.1,0,4.1,0,6.2,0c0.2-0.1,0.1-0.3,0.1-0.4c0-3.6,0-7.3,0-11C64.6,49.2,64.7,49,64.5,48.9z M70.3,42
		c-0.1-0.5-0.4-0.9-0.9-1.1c-1.1-0.6-2.2-0.8-3.5-0.4c-1.8,0.5-2.1,1-2.1,2.8c0,0.3,0,0.6,0,0.9c0,0.3,0,0.5,0.4,0.5c2,0,4,0,6-0.1
		C70.5,43.7,70.5,42.8,70.3,42z M77,44.4c0.9,0,1.8,0,2.6,0c1.4,0,1.4,0,1.4-1.4c0-0.7,0.1-1.3-0.4-1.9c-1-1.3-4.8-1.2-5.7,0.3
		c-0.1,0.2-0.3,0.3-0.2,0.6c-0.3,0.8-0.1,1.6-0.1,2.4c0,0.2,0.1,0.3,0.3,0.3C75.5,44.4,76.3,44.6,77,44.4z M42.8,44.3
		c1.2,0,2.4,0.3,3.6,0.2c0.8,0,1.7,0,2.5,0c0.3,0.1,0.3-0.2,0.3-0.4c0-0.5,0-0.9,0-1.4c0-1.2-0.5-1.9-1.6-2.3
		c-0.9-0.3-1.9-0.3-2.8-0.2c-0.8,0.1-1.7,0.5-1.9,1.5C42.6,42.6,42.5,43.5,42.8,44.3z M91.8,44c0.3-0.9,0.2-1.8,0-2.8
		c-0.1-0.5-0.4-0.8-0.8-1.1c-0.8-0.6-1.7-0.5-2.5-0.5c-2,0-3.1,1-3.1,3c0,0.3,0,0.7,0,1c0,0.4,0.1,0.5,0.5,0.5
		c1.5-0.1,3.1-0.1,4.6-0.2C90.9,44,91.4,44,91.8,44z M38.2,41.6c-0.1-0.6-0.6-1-1.1-1.3c-1.1-0.7-2.4-0.6-3.6-0.5
		c-1,0.1-1.7,1.2-1.7,2.2c0,0.6,0,1.1,0,1.7c0,0.3,0.1,0.4,0.4,0.4c2,0.2,4,0.1,6,0.1C38.4,43.3,38.4,42.4,38.2,41.6z M102.2,40.6
		c-0.3-1.3-1.4-1.6-2.7-1.7c-2.4-0.1-3.7,1.2-3.7,3.7c0,1.3,0,1.3,1.2,1.1c0.1,0,0.3,0,0.4,0c1.6,0.1,3.2-0.1,4.8-0.2
		C102.5,42.6,102.4,41.6,102.2,40.6z M21.3,40.8c-0.2,0.9-0.2,1.8,0,2.8c0.9,0.1,1.8,0.2,2.8,0.2c0.7,0,1.3,0,2,0.1
		c1.5,0.3,1.6,0.1,1.6-1.4c0-0.2,0-0.4,0-0.5c0.1-1.3-0.6-2.1-1.7-2.7c-0.5-0.2-0.9-0.2-1.4-0.3C23.1,38.6,21.6,39.5,21.3,40.8z
		 M16.7,43.2c0.3-1,0.2-2,0-3c-0.5-1.4-2.2-2.3-3.8-2.3c-1.2,0-2.1,0.7-2.5,1.8c-0.2,1.1-0.3,2.1,0,3.1c0.1,0.1,0.2,0.2,0.3,0.2
		C12.8,43.1,14.8,43.4,16.7,43.2z M106.7,43.2c1.7,0.2,3.4-0.1,5.2-0.1c1.2,0,1.2-0.1,1.2-1.4c0-0.5,0-0.9,0-1.4
		c0-0.6-0.2-1.1-0.6-1.5c-0.9-0.9-2-1-3.1-0.8c-1.3,0.3-2.4,0.9-2.7,2.4C106.6,41.4,106.5,42.3,106.7,43.2z M69.4,60.8
		c2.1,0,4.1,0,6.2,0c0.2-0.2,0.1-0.5,0.1-0.7c0-3.5,0-7,0-10.6c0-0.2,0-0.4,0-0.5c0-0.3-0.2-0.5-0.5-0.4c-1.2,0.3-2.5,0-3.7,0.1
		c-0.2,0-0.5-0.1-0.6,0.1c-0.5,0-1,0-1.5,0c-0.3,0.1-0.2,0.3-0.2,0.4c0,3.7,0,7.4,0,11.1C69.2,60.6,69.1,60.8,69.4,60.8z M46.5,48.9
		c0,3.9,0,7.8,0,11.6c0,0.4,0.2,0.5,0.5,0.5c1.2-0.2,2.5-0.1,3.7-0.2c0.5,0,1,0,1.6,0c0.4,0,0.6-0.1,0.6-0.6c0-3.8,0-7.6,0-11.4
		c-0.1-0.2-0.4-0.2-0.6-0.2c-1.8,0-3.7,0-5.5,0C46.7,48.7,46.5,48.7,46.5,48.9z M35.6,61.3c1.9,0.1,3.7-0.2,5.6-0.1
		c0.3,0,0.6-0.1,0.6-0.6c0-3.8,0-7.6,0-11.4c0-0.3-0.1-0.5-0.4-0.5c-1.9,0-3.9,0-5.8,0c-0.3,0.1-0.2,0.3-0.2,0.5c0,3.8,0,7.7,0,11.5
		C35.4,61,35.3,61.2,35.6,61.3z M87.3,48.7c-1.9,0-3.8,0-5.8,0c-0.3,0-0.5,0.1-0.5,0.5c0,3.9,0,7.7,0,11.6c0,0.3,0,0.4,0.4,0.4
		c2-0.1,3.9,0.3,5.9,0.1c0.3-0.1,0.2-0.3,0.2-0.5c0-3.8,0-7.7,0-11.5C87.4,49.1,87.6,48.8,87.3,48.7z M92.1,48.8
		c-0.2,0.1-0.1,0.3-0.1,0.5c0,4,0,7.9,0,11.9c0,0.2-0.1,0.4,0.1,0.5c0.2,0.2,0.4,0.2,0.6,0.2c1.4-0.1,2.7,0.2,4.1,0.2
		c0.5,0,1,0.4,1.5,0c0.1-0.1,0.1-0.3,0.1-0.4c0-4.2,0-8.3,0-12.5c0-0.1,0.1-0.3-0.1-0.4c-0.5,0-0.9,0-1.4,0c-1.2,0-2.3-0.2-3.5,0.1
		C93,48.7,92.6,48.7,92.1,48.8z M26.5,48.6c-0.7,0-1.5,0-2.2,0c-0.5,0-0.6,0.2-0.6,0.6c0,4.1,0,8.2,0,12.4c0,0.5,0.1,0.6,0.6,0.6
		c1.8-0.1,3.6-0.4,5.4-0.3c0.4,0,0.5-0.2,0.5-0.6c0-4.2,0-8.3,0-12.5c-0.1-0.2-0.2-0.2-0.4-0.2C28.6,48.6,27.6,48.6,26.5,48.6z
		 M12.9,48.4c-0.3,0.1-0.2,0.3-0.2,0.5c0,4.5,0,9,0,13.6c0,0.2-0.2,0.4,0.2,0.5c0.4,0,0.7,0.1,1.1,0c1.6-0.1,3.2-0.3,4.8-0.4
		c0.6,0,0.3-0.4,0.3-0.7c0-4,0-7.9,0-11.9c0-1.5,0-1.5-1.4-1.5c-0.8-0.3-1.7-0.1-2.5-0.1C14.4,48.4,13.6,48.4,12.9,48.4z
		 M103.6,48.6c-0.2,0.2-0.1,0.4-0.1,0.6c0,4.2,0,8.5,0,12.7c0,0.2-0.1,0.4,0.1,0.6c0.5,0.3,1,0.1,1.6,0.2c1.6,0.2,3.1,0.5,4.7,0.4
		c0.2-0.1,0.1-0.3,0.1-0.5c0-4.5,0-9.1,0-13.6c0-0.2,0.1-0.4-0.1-0.5C107.8,48.3,105.7,48.6,103.6,48.6z M56.2,44.5
		C56.2,44.5,56.2,44.5,56.2,44.5c0.5,0,1.1,0,1.6,0c1.7,0,1.7,0,1.7-1.7c0-0.9-0.3-1.5-1.1-1.9c-0.4-0.3-0.9-0.4-1.4-0.5
		c-1.2-0.2-2.3-0.1-3.3,0.7c-0.9,0.6-0.7,1.6-0.7,2.4c0,0.2,0,0.4,0,0.6c0,0.3,0.1,0.4,0.4,0.4C54.4,44.5,55.3,44.5,56.2,44.5z"/>
</g>
</svg>
