<?xml version="1.0" encoding="utf-8"?>
<!-- Generator: Adobe Illustrator 27.3.1, SVG Export Plug-In . SVG Version: 6.00 Build 0)  -->
<svg version="1.1" id="Capa_1" xmlns="http://www.w3.org/2000/svg" xmlns:xlink="http://www.w3.org/1999/xlink" x="0px" y="0px"
	 viewBox="0 0 1000 1000" style="enable-background:new 0 0 1000 1000;" xml:space="preserve">
<style type="text/css">
	.st0{fill:#040405;}
	.st1{fill:#EE7556;}
</style>
<g id="CrasForum_Logistics">
	<path class="st0" d="M476.1,233.7c2.5,0,5,0.1,7.5,0.1c10.1,0.1,20.2,0.7,30.3,0c10.2-0.6,20.5,1,30.6-1.1c9.9,0,19.9,0.1,29.8-0.2
		c24.1-0.7,48.2-1.2,72.2-2.6c13.3-0.7,26.6-1.7,39.9-2.4c19.8-1.1,39.6-2,59.3-3.9c18.2-1.7,36.4-3.5,54.7-5.1
		c22.9-2,45.8-4.6,68.6-7.6c20.4-2.7,40.9-5.3,61.2-8.5c9.3-1.5,18.8-2.2,28.2-4c4.8-0.9,6.8,0.4,6.8,6.1
		c-0.2,92.7-0.2,185.4-0.2,278.1c0,6.4-0.9,6.7-7.3,5.5c-9.9-1.8-19.8-3.1-29.8-4.6c-11.6-1.8-23.1-3.7-34.7-5.3
		c-6.6-0.9-13.2-1.9-20-1.8c-3.2,0.1-7.9-1-11.8-1.9c-12.9-3.1-26.1-3.3-39.2-5c-12.1-1.5-24.2-3.2-36.2-4.8c-6-0.8-12.1-1-18-1.3
		c-17.6-1.1-35.2-3.3-52.8-4.2c-18.7-1-37.4-2.8-56.1-3.8c-18-1-35.9-1.4-53.9-2.6c-15.1-1-30.2-0.1-45.3-1
		c-44.2-2.9-88.5-1.1-132.7-0.8c-12.7,0.1-25.6,0.1-38.3,1c-19.2,1.4-38.4,1.8-57.7,2.6c-20.8,0.9-41.5,3.2-62.3,4.9
		c-16.1,1.3-32.4,1.9-48.4,4c-18.8,2.4-37.8,4-56.5,7.2c-14.6,2.6-29.6,3.2-44.3,5.3c-25.3,3.5-50.4,7.5-75.7,11.4
		c-0.8,0.1-1.6,0.4-2.4,0.7c-4.7,1.8-6.5,0.7-6.5-4.8c0.2-64.2,0.1-128.4,0.1-192.6c0-28.9,0.1-57.9-0.1-86.8
		c-0.1-5.6,1.5-5.8,6.4-4.8c12.6,2.4,25.3,4,37.9,5.8c14.7,2.1,29.4,4.4,44.1,6.2c11.9,1.5,23.9,2.4,35.9,3.8
		c13.8,1.6,27.5,3.4,41.3,5c5.8,0.7,11.6,0.6,17.5,1.2c18.1,1.9,36.2,2.6,54.3,4.2c19.8,1.8,39.6,2.8,59.4,3.9
		c19.7,1.1,39.4,1.6,59,2.7c11.8,0.7,23.5,0,35.2,1c6.9,0.6,13.7,1.6,20.6,0.8C456.5,233.7,466.3,233.7,476.1,233.7z M532.9,334.2
		L532.9,334.2c-1.3-1.7-3.1-0.9-4.7-0.9c-13.9-0.1-27.8,0.1-41.7-0.1c-4.5-0.1-5.6,1.3-5.5,5.7c0.2,28.9,0.1,57.7,0.2,86.6
		c0,1.6-1.2,3.8,1.3,4.9c16.8-0.1,33.7-0.1,50.5-0.2c1.5-0.8,1-2.2,1-3.3c0-29.7,0-59.4,0-89.1C533.9,336.4,534.3,335.1,532.9,334.2
		z M579.9,278.3c-0.5-4.4-3.5-7.2-7-9.1c-8.8-4.9-18.3-6.5-28.1-3.5c-14.4,4.3-17,7.9-17,22.5c0,2.3,0.1,4.6,0,7
		c-0.2,2.5,0.3,3.8,3.4,3.8c16.2-0.3,32.4-0.4,48.6-0.5C581.6,291.7,581.1,285,579.9,278.3z M634.4,297.4c7.1,0,14.3,0,21.4,0
		c11.5,0,11.5,0,11.5-11.4c0-5.4,0.4-10.7-3.4-15.5c-8.3-10.7-38.8-10.1-46.6,2.1c-0.9,1.4-2.1,2.6-2,4.5
		c-2.6,6.3-0.6,12.8-1.1,19.2c-0.1,1.5,0.7,2.4,2.3,2.2C622.4,297.6,628.5,299.4,634.4,297.4z M355.7,297.1c9.7-0.3,19.2,2.7,29,1.2
		c6.8,0,13.6-0.1,20.4-0.1c2.7,0.7,2.6-1.2,2.6-2.9c0-3.8,0-7.6,0-11.4c0-9.6-4.4-15.8-13.4-19c-7.5-2.6-15.4-2.6-22.9-1.5
		c-6.9,1.1-13.6,4.4-15.8,12.4C354.2,283,354,290,355.7,297.1z M754.6,294.5c2.6-7.5,1.9-15,0.2-22.5c-0.8-4-3.5-6.5-6.6-8.8
		c-6.3-4.8-13.5-3.8-20.6-3.8c-16.3,0-24.8,8.4-24.8,24.5c0,2.7,0.2,5.5-0.1,8.2c-0.3,3.3,0.8,4.3,4.2,4.1
		c12.5-0.6,25.1-0.9,37.6-1.3C747.9,294.8,751.2,294.6,754.6,294.5z M318.9,274.6c-1-5.2-4.7-8.3-8.8-11c-9.1-6.1-19.5-4.9-29.4-3.8
		c-8.2,0.9-13.8,9.4-13.9,17.8c0,4.6,0.1,9.3,0,13.9c-0.1,2.3,0.4,3.1,3,3.4c16.3,2,32.6,1.1,49,0.9
		C320.5,288.8,320.2,281.7,318.9,274.6z M839.7,266.9c-2.8-10.2-11.7-13.3-22-13.8c-19.8-1-30,9.5-30,29.9c0,10.5,0,10.4,9.9,9.3
		c1-0.1,2.1-0.1,3.2,0c13,0.8,25.8-1.2,38.8-1.5C841.8,282.9,841.5,274.9,839.7,266.9z M180.7,268.2c-1.3,7.5-1.6,15,0.2,22.5
		c7.5,0.8,14.9,1.8,22.4,1.6c5.4-0.2,10.8,0.1,16.2,1.1c12.6,2.1,13.3,1.2,13.3-11.2c0-1.5-0.1-3,0-4.4c1.1-10.9-5.1-17-13.9-21.7
		c-3.7-2-7.6-1.7-11.4-2.7C196,250.3,183.3,257.7,180.7,268.2z M144,288.3c2.3-8,1.9-16,0.2-24c-4-11.7-17.6-19.1-31.1-18.8
		c-9.8,0.1-17.4,5.9-19.9,14.9c-1.4,8.5-2.2,17.1,0.3,25.6c0.9,0.5,1.8,1.3,2.7,1.3C112.1,287.4,128,289.6,144,288.3z M876.5,288.2
		c14.1,1.6,28-0.7,42-1.2c9.8-0.4,9.8-1.1,9.8-11.1c0-3.8,0.1-7.6,0-11.4c-0.2-4.6-1.4-9-4.9-12.4c-7.1-7.1-16.2-8.5-25.2-6.3
		c-10.4,2.5-19.6,7.5-22,19.6C875.1,273.1,874.6,280.7,876.5,288.2z M572.3,431.5c16.8,0,33.7-0.1,50.5-0.1c2-1.7,0.9-3.9,0.9-5.9
		c0.1-28.6,0.1-57.3,0.1-85.9c0-1.5,0-3-0.1-4.4c-0.2-2.3-1.9-3.8-3.7-3.4c-10,2.2-20,0.3-30,1c-1.8,0.1-3.8-0.8-5.2,1.1
		c-4.2,0.1-8.3,0.2-12.5,0.3c-2.3,0.5-1.3,2.4-1.3,3.6c-0.1,30-0.1,60,0,90C571.1,429.1,570.1,431,572.3,431.5z M386.2,334.2
		c-0.1,31.6-0.1,63.2-0.3,94.8c0,3.6,1.4,4.4,4.4,3.9c10-1.6,20-1.2,30-1.3c4.2,0,8.4-0.1,12.6,0c3.4,0.1,5.1-0.9,5-4.6
		c-0.2-31-0.3-61.9-0.4-92.9c-1.1-1.7-3-1.3-4.5-1.3c-14.9-0.1-29.7-0.1-44.6,0C387.5,332.9,386.4,332.7,386.2,334.2z M297.4,435.3
		c15.3,1.2,30.5-1.7,45.8-1.2c2.7,0.1,5-0.8,5-4.7c-0.1-31-0.1-61.9,0-92.9c0-2.6-0.5-3.7-3.4-3.7c-15.8,0.2-31.6,0.1-47.4,0.2
		c-2.4,0.8-1.3,2.8-1.3,4.3c-0.1,31.3-0.1,62.6,0,93.9C296.1,432.5,294.9,434.5,297.4,435.3z M717.9,333.1
		c-15.6-0.1-31.2-0.1-46.8-0.2c-2.8,0-4,0.5-4,3.7c0.1,31.4,0.1,62.8,0,94.2c0,2.2,0.2,3.6,3,3.5c16-0.8,31.8,2.3,47.8,1.1
		c2.4-0.8,1.3-2.8,1.3-4.3c0.1-31.3,0.1-62.6,0-93.9C719.2,335.9,720.4,333.8,717.9,333.1z M757.4,333.1c-1.7,1-1,2.6-1,4
		c0,32.2,0,64.4,0,96.6c0,1.3-0.7,3,1,4c1.4,1.6,3.2,1.7,5.1,1.6c11.3-0.9,22.4,2,33.6,1.3c4-0.2,7.9,3.1,11.9,0.1
		c1.1-1,0.8-2.3,0.8-3.5c0-34,0-67.9,0-101.9c0-1.2,0.5-2.6-1-3.3c-3.7,0-7.5,0-11.2,0c-9.4,0.1-18.8-1.6-28.1,0.9
		C764.8,332.9,761.1,333,757.4,333.1z M223.8,331.8c-6.1-0.1-12.2,0.1-18.3-0.3c-4.3-0.3-4.7,1.5-4.7,5c0.1,33.5,0.1,67,0,100.5
		c0,3.9,0.9,5,4.8,4.8c14.5-0.7,29-2.9,43.6-2.6c3.2,0.1,3.8-1.9,3.7-4.6c-0.1-33.9-0.2-67.8-0.3-101.8c-0.6-1.5-1.9-1.4-3.1-1.4
		C241,331.7,232.4,331.7,223.8,331.8z M112.4,330.5c-2.5,0.8-1.3,2.8-1.3,4.2c-0.1,36.8-0.1,73.5,0,110.3c0,1.4-1.2,3.5,1.3,4.2
		c2.9,0.1,5.9,0.4,8.8,0.1c13-1.2,26-2.7,39-3.6c4.6-0.3,2.9-3.4,2.9-5.4c0.1-32.2,0.1-64.5,0.1-96.7c0-11.8,0-11.8-11.4-12.1
		c-6.7-2.5-13.6-0.7-20.5-1C125,330.5,118.7,330.5,112.4,330.5z M851.1,331.9c-1.8,1.2-0.9,3.1-1,4.6c-0.1,34.4-0.1,68.8,0,103.2
		c0,1.6-0.5,3.4,0.8,4.8c4,2.4,8.4,0.8,12.6,1.2c12.6,1.5,25.2,3.9,38,3.4c1.7-1,1-2.6,1-4c0-36.8,0-73.7,0-110.5c0-1.3,0.7-3-1-4
		C884.7,329.1,867.9,331.9,851.1,331.9z M465.5,298.6c0,0,0,0.1,0,0.1c4.4,0,8.8,0,13.3,0c13.8,0,13.7,0,13.8-14.1
		c0.1-7-2.8-12-8.6-15.7c-3.6-2.3-7.7-3.5-11.7-4.1c-9.5-1.5-18.7-0.5-27,5.4c-7.3,5.2-6,12.7-6.1,19.9c0,1.7,0.2,3.4,0,5.1
		c-0.3,2.8,0.8,3.6,3.5,3.5C450.3,298.5,457.9,298.6,465.5,298.6z"/>
</g>
<g>
	<path d="M177.2,759.6c18.6,0,35.2-4.1,49.7-12.2c14.5-8.1,26-19.2,34.4-33.1l35.3,22.7c-11.9,20.2-28.2,36-49,47.5
		c-20.8,11.5-44.3,17.3-70.4,17.3c-27.5,0-52.2-6.2-74-18.5c-21.8-12.3-38.6-29.3-50.5-50.8c-11.9-21.5-17.8-45.7-17.8-72.4
		c0-20,3.5-38.8,10.5-56.2c7-17.4,16.6-32.4,29-45c12.3-12.5,27.4-22.4,45.2-29.6c17.8-7.2,37-10.8,57.7-10.8
		c26.1,0,49.6,5.8,70.4,17.3c20.8,11.5,37.2,27.3,49,47.5l-35.3,22.7c-8.4-14-19.9-25.1-34.5-33.3c-14.6-8.3-31.1-12.4-49.6-12.4
		c-19,0-35.9,4.6-50.8,13.8c-14.9,9.2-26.2,21.3-34,36.3c-7.8,15.1-11.7,31.6-11.7,49.7c0,18.1,3.9,34.7,11.7,49.7
		c7.8,15.1,19.2,27.1,34,36.2C141.3,755.1,158.2,759.6,177.2,759.6z"/>
	<path d="M638.3,566.9H473.2v78.7h135.1v41.7H473.2v108.7h-44.4V525.3h209.5V566.9z"/>
	<path class="st1" d="M818.1,754h146.9v42.1H773.7V525.3h44.4V754z"/>
</g>
</svg>
