<?xml version="1.0" encoding="utf-8"?>
<!-- Generator: Adobe Illustrator 27.3.1, SVG Export Plug-In . SVG Version: 6.00 Build 0)  -->
<svg version="1.1" id="Capa_1" xmlns="http://www.w3.org/2000/svg" xmlns:xlink="http://www.w3.org/1999/xlink" x="0px" y="0px"
	 viewBox="0 0 3000 1000" style="enable-background:new 0 0 3000 1000;" xml:space="preserve">
<style type="text/css">
	.st0{fill:#FFFFFF;}
	.st1{fill:#EE7556;}
</style>
<g id="CrasForum_Logistics">
	<g id="CRAS_FORUM">
		<path class="st0" d="M1387.1,448.5c9.4,0,17.8-2.1,25.2-6.2s13.2-9.7,17.4-16.8l17.9,11.5c-6,10.2-14.3,18.2-24.8,24
			c-10.5,5.8-22.4,8.7-35.6,8.7c-13.9,0-26.4-3.1-37.4-9.4c-11-6.2-19.5-14.8-25.6-25.7c-6-10.9-9-23.1-9-36.6
			c0-10.1,1.8-19.6,5.3-28.4c3.5-8.8,8.4-16.4,14.7-22.8c6.2-6.3,13.9-11.3,22.9-15c9-3.6,18.7-5.4,29.2-5.4
			c13.2,0,25.1,2.9,35.6,8.7c10.5,5.8,18.8,13.8,24.8,24l-17.9,11.5c-4.3-7.1-10.1-12.7-17.5-16.9c-7.4-4.2-15.8-6.3-25.1-6.3
			c-9.6,0-18.2,2.3-25.7,7c-7.5,4.6-13.3,10.8-17.2,18.4c-4,7.6-5.9,16-5.9,25.2c0,9.2,2,17.5,5.9,25.2c4,7.6,9.7,13.7,17.2,18.3
			C1368.9,446.2,1377.5,448.5,1387.1,448.5z"/>
		<path class="st0" d="M1516.5,466.9h-22.3v-137h65.3c8.3,0,15.8,1.2,22.5,3.7c6.7,2.5,12.2,5.8,16.5,10.1c4.3,4.3,7.6,9.3,9.9,14.9
			c2.3,5.7,3.4,11.8,3.4,18.3c0,9.9-2.5,18.7-7.7,26.4c-5.1,7.7-12.4,13.3-21.9,16.9l36,46.8h-26.6l-33-43h-42.4V466.9z
			 M1516.5,350.8V403h44.2c8.4,0,15.3-2.5,20.6-7.6c5.4-5.1,8.1-11.3,8.1-18.6c0-7.3-2.7-13.5-8.1-18.5c-5.4-5-12.3-7.6-20.6-7.6
			H1516.5z"/>
		<path class="st0" d="M1706.6,329.9h24.1l58.1,137h-23l-13.2-31.6h-67.9l-13.2,31.6h-23L1706.6,329.9z M1693.2,415.7h51l-25.5-60.3
			L1693.2,415.7z"/>
		<path class="st0" d="M1846.1,367.4c0,3.3,1,6,3.1,8.3c2.1,2.3,4.8,4,8.3,5.3c3.5,1.3,7.5,2.4,12,3.4c4.5,0.9,9.3,1.8,14.2,2.7
			c5,0.9,9.9,1.8,14.9,2.8c5,1,9.7,2.4,14.2,4.3c4.5,1.8,8.5,4,12,6.6c3.5,2.6,6.2,6,8.3,10.2c2.1,4.3,3.1,9.2,3.1,14.8
			c0,12.9-4.8,23.2-14.3,30.9c-9.5,7.7-22.5,11.6-38.9,11.6c-12.7,0-24.5-1.8-35.5-5.5c-11-3.7-20.3-8.5-28-14.5l12.7-17.6
			c16.4,10.9,33.3,16.3,50.8,16.3c5.3,0,10-0.7,14-2c4-1.3,7.1-3.1,9.3-5.2c2.2-2.2,3.7-4.3,4.8-6.6c1-2.2,1.5-4.4,1.5-6.7
			c0-2.9-0.8-5.5-2.5-7.7c-1.7-2.2-3.9-3.8-6.8-5.1c-2.9-1.2-6.2-2.3-10.1-3.3c-3.8-1-7.9-1.8-12.2-2.4c-4.3-0.6-8.7-1.4-13.2-2.3
			c-4.5-0.9-9-2-13.2-3c-4.3-1.1-8.3-2.6-12.2-4.7c-3.8-2-7.2-4.4-10.1-7c-2.9-2.6-5.1-6.1-6.8-10.2c-1.7-4.2-2.5-9-2.5-14.3
			c0-11.9,4.9-21.4,14.6-28.4c9.7-7,22.3-10.5,37.6-10.5c23.1,0,42.2,5.6,57.5,16.9l-9.8,18c-7.5-4.7-15.4-8.2-23.8-10.4
			c-8.3-2.3-16.3-3.4-23.9-3.4c-8.6,0-15.5,1.7-20.9,5.1C1848.7,357.4,1846.1,361.9,1846.1,367.4z"/>
		<path class="st0" d="M2156.6,351H2073v39.8h68.4v21.1H2073v55h-22.5v-137h106V351z"/>
		<path class="st0" d="M2234.2,332.1c8.9-3.8,18.4-5.6,28.5-5.6c10.1,0,19.6,1.9,28.5,5.6c8.9,3.8,16.5,8.9,22.9,15.3
			c6.3,6.4,11.3,14.1,15,22.9c3.7,8.8,5.5,18.1,5.5,27.8c0,13-3.1,25-9.3,35.9c-6.2,11-14.8,19.7-25.9,26.1
			c-11.1,6.4-23.3,9.7-36.7,9.7c-13.4,0-25.6-3.2-36.7-9.7c-11.1-6.4-19.7-15.1-25.9-26.1c-6.2-11-9.3-22.9-9.3-35.9
			c0-9.7,1.8-19,5.5-27.8c3.7-8.8,8.7-16.4,15-22.9C2217.6,340.9,2225.3,335.8,2234.2,332.1z M2237.2,441.4
			c7.7,4.7,16.2,7.1,25.5,7.1c9.4,0,17.9-2.4,25.5-7.1c7.7-4.7,13.6-11,17.7-18.6c4.2-7.7,6.2-15.9,6.2-24.7c0-8.8-2.1-17-6.2-24.7
			c-4.2-7.7-10.1-13.9-17.7-18.7c-7.7-4.8-16.2-7.2-25.5-7.2c-9.4,0-17.9,2.4-25.5,7.2c-7.7,4.8-13.6,11-17.7,18.7
			c-4.2,7.7-6.2,15.9-6.2,24.7c0,8.8,2.1,17,6.2,24.7C2223.6,430.4,2229.5,436.6,2237.2,441.4z"/>
		<path class="st0" d="M2402.6,466.9h-22.3v-137h65.3c8.3,0,15.8,1.2,22.5,3.7c6.7,2.5,12.2,5.8,16.5,10.1c4.3,4.3,7.6,9.3,9.9,14.9
			c2.3,5.7,3.4,11.8,3.4,18.3c0,9.9-2.5,18.7-7.7,26.4c-5.1,7.7-12.4,13.3-21.9,16.9l36,46.8H2478l-33-43h-42.4V466.9z
			 M2402.6,350.8V403h44.2c8.4,0,15.3-2.5,20.6-7.6c5.4-5.1,8.1-11.3,8.1-18.6c0-7.3-2.7-13.5-8.1-18.5c-5.4-5-12.3-7.6-20.6-7.6
			H2402.6z"/>
		<path class="st0" d="M2646.4,329.5h22.5v77.4c0,20.1-5.5,35.6-16.6,46.5c-11.1,10.9-26.1,16.4-45.1,16.4c-19,0-34-5.5-45-16.4
			c-11.1-10.9-16.6-26.4-16.6-46.5v-77.4h22.5v75.7c0,13.1,3.4,23.6,10.1,31.4c6.7,7.9,16.4,11.8,29,11.8c12.6,0,22.3-3.9,29.1-11.8
			c6.8-7.9,10.2-18.4,10.2-31.4V329.5z"/>
		<path class="st0" d="M2870.5,329.9v137h-22.6v-96l-43.9,62.7h-16.3l-44-62.7v96h-22.5v-137h19.5l55,78.8l55.2-78.8H2870.5z"/>
	</g>
	<g id="LOGISTICS">
		<path class="st1" d="M1344.6,637.5h74.3v21.3h-96.8v-137h22.5V637.5z"/>
		<path class="st1" d="M1494.6,523.9c8.9-3.8,18.4-5.6,28.5-5.6c10.1,0,19.6,1.9,28.5,5.6c8.9,3.8,16.5,8.9,22.9,15.3
			c6.3,6.4,11.3,14.1,15,22.9c3.7,8.8,5.5,18.1,5.5,27.8c0,13-3.1,25-9.3,35.9c-6.2,11-14.8,19.7-25.9,26.1
			c-11.1,6.4-23.3,9.7-36.7,9.7c-13.4,0-25.6-3.2-36.7-9.7c-11.1-6.4-19.7-15.1-25.9-26.1c-6.2-11-9.3-22.9-9.3-35.9
			c0-9.7,1.8-19,5.5-27.8c3.7-8.8,8.7-16.4,15-22.9C1478.1,532.8,1485.7,527.7,1494.6,523.9z M1497.6,633.2
			c7.7,4.7,16.2,7.1,25.5,7.1c9.4,0,17.9-2.4,25.5-7.1c7.7-4.7,13.6-11,17.7-18.6c4.2-7.7,6.2-15.9,6.2-24.7c0-8.8-2.1-17-6.2-24.7
			c-4.2-7.7-10.1-13.9-17.7-18.7c-7.7-4.8-16.2-7.2-25.5-7.2c-9.4,0-17.9,2.4-25.5,7.2c-7.7,4.8-13.6,11-17.7,18.7
			c-4.2,7.7-6.2,15.9-6.2,24.7c0,8.8,2.1,17,6.2,24.7C1484.1,622.3,1490,628.5,1497.6,633.2z"/>
		<path class="st1" d="M1774.3,580.4c0.8,4.6,1.3,9,1.3,13.2c0,9.4-1.8,18.3-5.2,26.7c-3.5,8.4-8.3,15.6-14.4,21.6
			c-6.1,6-13.5,10.8-22.2,14.4c-8.7,3.5-18,5.3-27.9,5.3c-9.9,0-19.3-1.9-28.2-5.7c-8.9-3.8-16.4-8.9-22.7-15.4
			c-6.2-6.4-11.2-14.1-14.8-22.9c-3.6-8.8-5.4-18.1-5.4-27.8c0-9.9,1.8-19.3,5.5-28.2c3.7-8.8,8.6-16.4,14.9-22.8
			c6.3-6.3,13.9-11.4,22.8-15.1c8.9-3.7,18.3-5.6,28.3-5.6c12.2,0,23.6,2.6,34.2,7.9c10.6,5.3,19.3,12.4,26.1,21.4l-17.1,12.3
			c-5-6.2-11.2-11.2-18.8-14.9c-7.6-3.7-15.7-5.6-24.4-5.6c-9.7,0-18.4,2.3-25.9,6.8c-7.5,4.5-13.3,10.6-17.2,18.2
			c-4,7.6-5.9,16.1-5.9,25.5c0,9.2,2,17.5,5.9,25.2c4,7.6,9.7,13.7,17.2,18.3c7.5,4.6,16,6.9,25.6,6.9c12.5,0,22.9-3.6,31.1-10.9
			c8.3-7.3,13.2-16.6,14.9-28.2H1703v-20.9H1774.3z"/>
		<path class="st1" d="M1842.9,658.8h-21.7v-137h21.7V658.8z"/>
		<path class="st1" d="M1915.4,559.3c0,3.3,1,6,3.1,8.3s4.8,4,8.3,5.3c3.5,1.3,7.5,2.4,12,3.4c4.5,0.9,9.3,1.8,14.2,2.7
			c5,0.9,9.9,1.8,14.9,2.8c5,1,9.7,2.4,14.2,4.3c4.5,1.8,8.5,4,12,6.6c3.5,2.6,6.2,6,8.3,10.2c2.1,4.3,3.1,9.2,3.1,14.8
			c0,12.9-4.8,23.2-14.3,30.9c-9.5,7.7-22.5,11.6-38.9,11.6c-12.7,0-24.5-1.8-35.5-5.5c-11-3.7-20.3-8.5-28-14.5l12.7-17.6
			c16.4,10.9,33.3,16.3,50.8,16.3c5.3,0,10-0.7,14-2c4-1.3,7.1-3.1,9.3-5.2c2.2-2.2,3.7-4.3,4.8-6.6c1-2.2,1.5-4.4,1.5-6.7
			c0-2.9-0.8-5.5-2.5-7.7c-1.7-2.2-3.9-3.8-6.8-5.1c-2.9-1.2-6.2-2.3-10.1-3.3c-3.8-1-7.9-1.8-12.2-2.4c-4.3-0.6-8.7-1.4-13.2-2.3
			c-4.5-0.9-9-2-13.2-3c-4.3-1.1-8.3-2.6-12.2-4.7c-3.8-2-7.2-4.4-10.1-7c-2.9-2.6-5.1-6.1-6.8-10.2c-1.7-4.2-2.5-9-2.5-14.3
			c0-11.9,4.9-21.4,14.6-28.4c9.7-7,22.3-10.5,37.6-10.5c23.1,0,42.2,5.6,57.5,16.9l-9.8,18c-7.5-4.7-15.4-8.2-23.8-10.4
			c-8.3-2.3-16.3-3.4-23.9-3.4c-8.6,0-15.5,1.7-20.9,5.1C1918.1,549.3,1915.4,553.8,1915.4,559.3z"/>
		<path class="st1" d="M2043.6,521.7h120.4v21.1h-49v115.9h-22.5V542.8h-48.8V521.7z"/>
		<path class="st1" d="M2231.8,658.8h-21.7v-137h21.7V658.8z"/>
		<path class="st1" d="M2350.7,640.3c9.4,0,17.8-2.1,25.2-6.2c7.4-4.1,13.2-9.7,17.4-16.8l17.9,11.5c-6,10.2-14.3,18.2-24.8,24
			c-10.5,5.8-22.4,8.7-35.6,8.7c-13.9,0-26.4-3.1-37.4-9.4c-11-6.2-19.5-14.8-25.6-25.7c-6-10.9-9-23.1-9-36.6
			c0-10.1,1.8-19.6,5.3-28.4c3.5-8.8,8.4-16.4,14.7-22.8c6.2-6.3,13.9-11.3,22.9-15c9-3.6,18.7-5.4,29.2-5.4
			c13.2,0,25.1,2.9,35.6,8.7c10.5,5.8,18.8,13.8,24.8,24l-17.9,11.5c-4.3-7.1-10.1-12.7-17.5-16.9c-7.4-4.2-15.8-6.3-25.1-6.3
			c-9.6,0-18.2,2.3-25.7,7c-7.5,4.6-13.3,10.8-17.2,18.4c-4,7.6-5.9,16-5.9,25.2c0,9.2,2,17.5,5.9,25.2c4,7.6,9.7,13.7,17.2,18.3
			C2332.6,638,2341.1,640.3,2350.7,640.3z"/>
		<path class="st1" d="M2477.3,559.3c0,3.3,1,6,3.1,8.3s4.8,4,8.3,5.3c3.5,1.3,7.5,2.4,12,3.4c4.5,0.9,9.3,1.8,14.2,2.7
			c5,0.9,9.9,1.8,14.9,2.8c5,1,9.7,2.4,14.2,4.3c4.5,1.8,8.5,4,12,6.6c3.5,2.6,6.2,6,8.3,10.2c2.1,4.3,3.1,9.2,3.1,14.8
			c0,12.9-4.8,23.2-14.3,30.9c-9.5,7.7-22.5,11.6-38.9,11.6c-12.7,0-24.5-1.8-35.5-5.5c-11-3.7-20.3-8.5-28-14.5l12.7-17.6
			c16.4,10.9,33.3,16.3,50.8,16.3c5.3,0,10-0.7,14-2c4-1.3,7.1-3.1,9.3-5.2c2.2-2.2,3.7-4.3,4.8-6.6c1-2.2,1.5-4.4,1.5-6.7
			c0-2.9-0.8-5.5-2.5-7.7c-1.7-2.2-3.9-3.8-6.8-5.1c-2.9-1.2-6.2-2.3-10.1-3.3c-3.8-1-7.9-1.8-12.2-2.4c-4.3-0.6-8.7-1.4-13.2-2.3
			c-4.5-0.9-9-2-13.2-3c-4.3-1.1-8.3-2.6-12.2-4.7c-3.8-2-7.2-4.4-10.1-7c-2.9-2.6-5.1-6.1-6.8-10.2c-1.7-4.2-2.5-9-2.5-14.3
			c0-11.9,4.9-21.4,14.6-28.4c9.7-7,22.3-10.5,37.6-10.5c23.1,0,42.2,5.6,57.5,16.9l-9.8,18c-7.5-4.7-15.4-8.2-23.8-10.4
			c-8.3-2.3-16.3-3.4-23.9-3.4c-8.6,0-15.5,1.7-20.9,5.1C2480,549.3,2477.3,553.8,2477.3,559.3z"/>
	</g>
	<path class="st0" d="M667.7,369.9c2.8,0.1,5.6,0.1,8.5,0.2c11.4,0.1,22.9,0.8,34.3,0c11.6-0.7,23.2,1.2,34.7-1.2
		c11.2,0,22.5,0.2,33.7-0.2c27.3-0.8,54.5-1.4,81.7-2.9c15.1-0.8,30.1-1.9,45.2-2.8c22.4-1.2,44.8-2.3,67.1-4.4
		c20.6-1.9,41.3-3.9,61.9-5.7c25.9-2.3,51.8-5.2,77.7-8.6c23.1-3,46.3-6,69.3-9.7c10.6-1.7,21.3-2.5,31.9-4.5c5.4-1,7.7,0.4,7.7,6.9
		c-0.2,104.9-0.2,209.9-0.2,314.8c0,7.2-1,7.6-8.3,6.2c-11.2-2.1-22.5-3.5-33.7-5.2c-13.1-2-26.2-4.2-39.3-6c-7.5-1-14.9-2.2-22.7-2
		c-3.7,0.1-9-1.1-13.4-2.2c-14.6-3.5-29.6-3.8-44.4-5.6c-13.7-1.7-27.4-3.6-41-5.4c-6.8-0.9-13.7-1.1-20.4-1.5
		c-20-1.2-39.8-3.7-59.8-4.8c-21.2-1.1-42.3-3.1-63.5-4.3c-20.3-1.1-40.7-1.6-61-3c-17.1-1.1-34.2-0.1-51.3-1.2
		c-50.1-3.3-100.1-1.2-150.2-0.9c-14.4,0.1-29,0.1-43.4,1.1c-21.7,1.5-43.5,2.1-65.3,3c-23.5,1-47,3.6-70.5,5.5
		c-18.3,1.5-36.7,2.2-54.8,4.5c-21.3,2.8-42.7,4.5-64,8.2c-16.6,2.9-33.5,3.6-50.1,6c-28.6,4-57.1,8.5-85.7,12.9
		c-0.9,0.1-1.8,0.4-2.7,0.7c-5.3,2-7.4,0.8-7.4-5.4c0.2-72.7,0.1-145.3,0.1-218c0-32.7,0.2-65.5-0.1-98.2c-0.1-6.3,1.7-6.6,7.3-5.5
		c14.2,2.7,28.6,4.5,43,6.6c16.6,2.4,33.3,4.9,50,7c13.5,1.7,27.1,2.8,40.6,4.3c15.6,1.8,31.2,3.9,46.8,5.7
		c6.6,0.7,13.2,0.7,19.8,1.4c20.4,2.1,41,2.9,61.5,4.7c22.4,2,44.8,3.2,67.3,4.4c22.3,1.2,44.6,1.8,66.8,3.1
		c13.3,0.8,26.6,0,39.9,1.1c7.8,0.6,15.5,1.8,23.3,0.9C645.6,369.9,656.6,369.9,667.7,369.9z M732,483.7L732,483.7
		c-1.5-1.9-3.5-1.1-5.3-1.1c-15.7-0.1-31.5,0.2-47.2-0.2c-5.1-0.1-6.3,1.5-6.3,6.4c0.2,32.7,0.1,65.4,0.2,98.1
		c0,1.8-1.3,4.3,1.4,5.5c19.1-0.1,38.1-0.1,57.2-0.2c1.7-0.9,1.1-2.5,1.1-3.8c0-33.6,0-67.3,0-100.9
		C733.1,486.2,733.6,484.7,732,483.7z M785.3,420.4c-0.6-5-4-8.1-7.9-10.3c-10-5.5-20.7-7.4-31.8-4c-16.3,4.9-19.3,9-19.3,25.5
		c0,2.6,0.1,5.3,0,7.9c-0.2,2.8,0.4,4.3,3.8,4.2c18.4-0.3,36.7-0.4,55.1-0.6C787.1,435.6,786.6,428,785.3,420.4z M846.9,442.1
		c8.1,0,16.2,0,24.3,0c13,0,13,0,13-12.9c0-6.1,0.5-12.1-3.8-17.6c-9.4-12.1-43.9-11.5-52.8,2.4c-1,1.6-2.4,3-2.3,5.1
		c-2.9,7.1-0.6,14.5-1.3,21.7c-0.1,1.7,0.8,2.7,2.6,2.5C833.3,442.3,840.3,444.3,846.9,442.1z M531.5,441.7
		c11-0.3,21.8,3.1,32.8,1.4c7.7,0,15.4-0.1,23.1-0.1c3.1,0.8,2.9-1.4,2.9-3.3c0-4.3,0-8.6,0-12.9c0-10.9-5-17.9-15.1-21.5
		c-8.5-3-17.4-3-25.9-1.6c-7.8,1.2-15.4,4.9-17.9,14C529.8,425.7,529.5,433.7,531.5,441.7z M983,438.8c2.9-8.5,2.1-16.9,0.2-25.4
		c-0.9-4.5-3.9-7.3-7.4-10c-7.1-5.4-15.3-4.3-23.3-4.3c-18.4,0-28.1,9.5-28.1,27.7c0,3.1,0.2,6.2-0.1,9.3c-0.4,3.7,0.9,4.9,4.7,4.7
		c14.2-0.7,28.4-1,42.6-1.4C975.4,439.1,979.2,438.9,983,438.8z M489.7,416.2c-1.2-5.9-5.4-9.4-10-12.4c-10.3-6.9-22.1-5.5-33.3-4.3
		c-9.3,1-15.6,10.7-15.7,20.2c0,5.2,0.1,10.5,0,15.7c-0.1,2.6,0.5,3.5,3.4,3.9c18.5,2.2,37,1.2,55.4,1
		C491.6,432.3,491.3,424.3,489.7,416.2z M1079.3,407.5c-3.2-11.6-13.2-15-24.9-15.6c-22.4-1.1-33.9,10.7-33.9,33.8
		c0,11.8,0,11.8,11.2,10.5c1.2-0.1,2.4-0.1,3.6,0c14.7,0.9,29.3-1.3,43.9-1.7C1081.8,425.6,1081.3,416.6,1079.3,407.5z M333.4,409
		c-1.4,8.5-1.8,17,0.2,25.5c8.4,0.9,16.8,2.1,25.4,1.8c6.1-0.2,12.2,0.2,18.3,1.2c14.2,2.4,15.1,1.3,15.1-12.7c0-1.7-0.1-3.4,0-5
		c1.2-12.4-5.8-19.2-15.8-24.6c-4.2-2.2-8.6-2-12.9-3.1C350.7,388.7,336.3,397.1,333.4,409z M291.7,431.8c2.6-9,2.1-18.1,0.2-27.2
		c-4.5-13.2-19.9-21.6-35.2-21.3c-11.1,0.2-19.8,6.7-22.6,16.8c-1.6,9.7-2.5,19.3,0.3,28.9c1,0.5,2.1,1.5,3.1,1.5
		C255.6,430.8,273.6,433.2,291.7,431.8z M1120.9,431.7c15.9,1.8,31.7-0.7,47.6-1.3c11.1-0.4,11.1-1.2,11.1-12.5
		c0-4.3,0.2-8.6,0-12.9c-0.3-5.2-1.6-10.2-5.5-14c-8.1-8-18.3-9.6-28.5-7.1c-11.7,2.9-22.2,8.5-24.9,22.2
		C1119.4,414.6,1118.9,423.1,1120.9,431.7z M776.7,593.8c19.1,0,38.1-0.1,57.2-0.1c2.3-1.9,1.1-4.4,1.1-6.6
		c0.1-32.4,0.1-64.8,0.1-97.2c0-1.7,0-3.3-0.1-5c-0.2-2.6-2.1-4.3-4.2-3.8c-11.3,2.5-22.7,0.4-34,1.2c-2,0.1-4.3-1-5.9,1.3
		c-4.7,0.1-9.4,0.2-14.1,0.3c-2.6,0.6-1.5,2.7-1.5,4c-0.1,34-0.1,67.9,0,101.9C775.2,591.2,774.1,593.3,776.7,593.8z M566,483.7
		c-0.1,35.8-0.1,71.5-0.3,107.3c0,4.1,1.6,5,4.9,4.5c11.3-1.9,22.7-1.3,34-1.4c4.8,0,9.5-0.1,14.3,0c3.8,0.1,5.7-1,5.7-5.2
		c-0.2-35-0.3-70.1-0.4-105.1c-1.3-1.9-3.4-1.5-5.1-1.5c-16.8-0.1-33.7-0.1-50.5-0.1C567.5,482.2,566.1,482,566,483.7z M465.4,598.1
		c17.3,1.3,34.5-2,51.9-1.3c3,0.1,5.7-1,5.7-5.3c-0.1-35.1-0.1-70.1,0-105.2c0-2.9-0.6-4.2-3.9-4.2c-17.9,0.2-35.8,0.2-53.6,0.2
		c-2.7,0.9-1.4,3.2-1.4,4.8c-0.1,35.4-0.1,70.8,0,106.3C464,594.9,462.6,597.3,465.4,598.1z M941.5,482.4c-17.7-0.1-35.3-0.1-53-0.3
		c-3.2,0-4.6,0.5-4.6,4.2c0.1,35.6,0.1,71.1,0.1,106.7c0,2.4,0.2,4.1,3.4,3.9c18.1-0.9,36,2.6,54.1,1.3c2.7-0.9,1.4-3.2,1.4-4.8
		c0.1-35.4,0.1-70.8,0-106.3C942.9,485.6,944.3,483.3,941.5,482.4z M986.1,482.5c-1.9,1.1-1.1,3-1.1,4.5c0,36.5,0,72.9,0,109.4
		c0,1.5-0.8,3.4,1.1,4.5c1.6,1.8,3.6,2,5.8,1.8c12.7-1,25.3,2.3,38.1,1.5c4.5-0.3,8.9,3.5,13.5,0.1c1.3-1.1,0.9-2.6,0.9-4
		c0-38.4,0-76.9,0-115.3c0-1.3,0.6-2.9-1.1-3.8c-4.2,0-8.5,0-12.7-0.1c-10.6,0.1-21.3-1.8-31.8,1
		C994.5,482.2,990.3,482.4,986.1,482.5z M382.1,481c-6.9-0.1-13.8,0.2-20.7-0.4c-4.8-0.4-5.3,1.7-5.3,5.7c0.1,37.9,0.2,75.9,0,113.8
		c0,4.4,1,5.7,5.5,5.5c16.5-0.8,32.8-3.3,49.4-3c3.6,0.1,4.2-2.1,4.2-5.2c-0.2-38.4-0.3-76.8-0.4-115.2c-0.6-1.7-2.2-1.6-3.6-1.5
		C401.5,480.8,391.8,480.9,382.1,481z M256,479.5c-2.8,0.9-1.4,3.2-1.4,4.8c-0.1,41.6-0.1,83.2,0,124.9c0,1.6-1.4,3.9,1.4,4.8
		c3.3,0.1,6.7,0.5,10,0.2c14.7-1.3,29.4-3,44.1-4.1c5.2-0.4,3.2-3.8,3.2-6.1c0.1-36.5,0.1-73,0.1-109.5c0-13.4,0-13.4-12.9-13.7
		c-7.6-2.8-15.4-0.8-23.2-1.1C270.3,479.5,263.2,479.5,256,479.5z M1092.3,481.1c-2.1,1.4-1.1,3.5-1.1,5.2
		c-0.1,38.9-0.1,77.9,0,116.8c0,1.8-0.6,3.8,0.9,5.5c4.5,2.7,9.5,0.9,14.3,1.4c14.3,1.7,28.5,4.4,43.1,3.8c1.9-1.1,1.1-3,1.1-4.5
		c0-41.7,0-83.4,0-125.1c0-1.5,0.8-3.4-1.1-4.5C1130.3,478,1111.3,481.1,1092.3,481.1z M655.7,443.5c0,0.1,0,0.1,0,0.2
		c5,0,10,0,15,0c15.7,0,15.5,0,15.6-16c0.1-8-3.1-13.5-9.7-17.8c-4.1-2.6-8.7-3.9-13.2-4.6c-10.8-1.7-21.2-0.6-30.5,6.1
		c-8.2,5.9-6.8,14.4-6.9,22.5c0,1.9,0.2,3.8,0,5.7c-0.4,3.2,0.9,4.1,4,4C638.5,443.3,647.1,443.5,655.7,443.5z"/>
</g>
<g id="Capa_2">
</g>
</svg>
